<?xml version="1.0" encoding="UTF-8"?>
<!DOCTYPE svg PUBLIC "-//W3C//DTD SVG 1.1//EN" "http://www.w3.org/Graphics/SVG/1.1/DTD/svg11.dtd">
<!-- Creator: CorelDRAW X8 -->
<svg xmlns="http://www.w3.org/2000/svg" xml:space="preserve" width="9.1305in" height="2.60803in" version="1.1" style="shape-rendering:geometricPrecision; text-rendering:geometricPrecision; image-rendering:optimizeQuality; fill-rule:evenodd; clip-rule:evenodd"
viewBox="0 0 9130 2608"
 xmlns:xlink="http://www.w3.org/1999/xlink">
 <defs>
  <style type="text/css">
   <![CDATA[
    .fil5 {fill:#489E9C}
    .fil3 {fill:#489E9C}
    .fil2 {fill:#363862}
    .fil1 {fill:#489E9C;fill-rule:nonzero}
    .fil0 {fill:#363862;fill-rule:nonzero}
    .fil4 {fill:url(#id0)}
   ]]>
  </style>
  <linearGradient id="id0" gradientUnits="userSpaceOnUse" x1="413.106" y1="842.421" x2="1259.89" y2="611.646">
   <stop offset="0" style="stop-opacity:1; stop-color:#363862"/>
   <stop offset="1" style="stop-opacity:1; stop-color:#114C97"/>
  </linearGradient>
 </defs>
 <g id="Layer_x0020_1">
  <metadata id="CorelCorpID_0Corel-Layer"/>
  <g id="_2280391428048">
   <g>
    <g>
     <path class="fil0" d="M3416 390c7,0 14,3 19,8 6,6 9,12 9,20 0,8 -3,14 -9,20 -5,5 -12,8 -19,8 -8,0 -15,-3 -20,-8 -6,-6 -8,-12 -8,-20 0,-8 2,-14 8,-20 5,-5 12,-8 20,-8zm-74 1c7,0 14,2 20,8 5,5 8,12 8,19 0,8 -3,14 -8,20 -6,5 -13,8 -20,8 -8,0 -15,-3 -20,-8 -5,-6 -8,-12 -8,-20 0,-7 3,-14 8,-19 5,-6 12,-8 20,-8zm43 82l71 -22 0 127 -214 0 32 -69 16 0c0,1 0,2 0,3 0,8 4,11 14,11l97 0 0 -37 -16 5 0 -18zm173 -140l0 245 -55 0 0 -207 -16 6 0 -18 71 -26zm170 245l-149 0 34 -69 13 2c2,8 9,12 20,12l27 0c1,-15 -12,-29 -38,-44 17,-29 33,-48 47,-58l11 8c-4,3 -6,7 -6,12 0,5 3,10 9,15 21,19 32,41 32,68l0 54zm-5 -55l68 0 0 55 -68 0 0 -55zm63 0l68 0 0 55 -68 0 0 -55zm63 0l68 0 0 55 -68 0 0 -55zm63 0l68 0 0 55 -68 0 0 -55zm214 0l55 0 0 55 -64 0 -25 -25 -25 25 -92 0 0 -55 81 0c-13,-10 -27,-19 -39,-26 -5,-3 -7,-5 -8,-6 -1,-1 -2,-3 -2,-6 0,-4 3,-8 10,-11 18,-8 39,-25 61,-49 5,-5 9,-8 13,-8 3,0 9,4 17,12 16,16 35,31 56,43 5,3 8,6 9,7 1,1 2,3 2,6 0,2 -1,4 -1,5 -1,2 -4,3 -8,6 -13,7 -26,17 -40,27zm-35 -53l-15 15 15 14 14 -14 -14 -15zm80 53l68 0 0 55 -68 0 0 -55zm63 0l68 0 0 55 -68 0 0 -55zm63 0l68 0 0 55 -68 0 0 -55zm87 0c7,-17 17,-31 31,-43 14,-11 25,-17 33,-17 10,0 24,8 41,25 18,16 27,35 27,57 0,13 -3,24 -8,35 -5,10 -13,19 -24,25 -11,6 -23,9 -34,9 -30,0 -51,-12 -62,-36l-27 0 0 -55 23 0zm65 -4c-4,0 -8,3 -12,8 -4,5 -6,10 -6,15 0,11 7,17 19,17 4,0 8,-2 11,-5 3,-3 5,-7 5,-12 0,-5 -2,-10 -6,-15 -3,-6 -7,-8 -11,-8zm57 4l68 0 0 55 -68 0 0 -55zm63 0l68 0 0 55 -68 0 0 -55zm63 0l68 0 0 55 -68 0 0 -55zm166 -205l0 260 -103 0 0 -55 49 0 0 -167 -17 6 0 -17 71 -27zm103 15l0 245 -55 0 0 -207 -17 6 0 -18 72 -26zm146 6c7,0 14,3 19,8 6,6 8,12 8,20 0,7 -2,14 -8,19 -5,5 -12,8 -19,8 -8,0 -14,-3 -20,-8 -5,-5 -8,-12 -8,-19 0,-8 3,-14 8,-20 6,-5 12,-8 20,-8zm73 0c7,0 14,3 19,8 6,6 9,12 9,20 0,7 -3,14 -9,19 -5,5 -12,8 -19,8 -8,0 -14,-3 -20,-8 -5,-5 -8,-12 -8,-19 0,-8 3,-14 8,-20 6,-5 12,-8 20,-8zm-42 93l67 -25 0 171 -96 0c-15,0 -26,-4 -33,-12 -8,-8 -12,-18 -12,-29 0,-15 8,-30 24,-44 16,-14 38,-24 66,-32l0 -18 -16 6 0 -17zm16 63c-9,1 -17,3 -22,6 -6,4 -9,8 -9,13 0,4 2,6 5,8 4,1 12,1 26,1l0 -28zm161 -34c29,26 44,60 44,103 0,27 -8,49 -23,65 -15,15 -33,23 -53,23 -16,0 -29,-3 -40,-10 -10,-7 -15,-13 -15,-16 0,-3 1,-5 4,-5 1,0 4,1 7,1 6,1 11,2 16,2 15,0 27,-6 36,-17 9,-11 13,-26 13,-43 0,-24 -5,-36 -15,-36 -4,0 -7,1 -9,3l-10 -9 45 -61zm142 -128l0 190 5 0 0 55 -60 0 0 -207 -16 6 0 -18 71 -26zm-5 190l68 0 0 55 -68 0 0 -55zm63 0l68 0 0 55 -68 0 0 -55zm63 0l68 0 0 55 -68 0 0 -55zm63 0l68 0 0 55 -68 0 0 -55zm63 0l68 0 0 55 -68 0 0 -55zm63 0l68 0 0 55 -68 0 0 -55zm96 -51c9,-22 24,-33 44,-33 31,0 56,28 74,84l16 0 0 54c0,1 0,2 0,5 1,5 1,8 1,10 0,7 -2,10 -7,10 -3,0 -6,-1 -7,-3 -1,-3 -4,-9 -9,-21l-144 0 0 -55 119 0c-13,-20 -25,-31 -35,-31 -8,0 -13,7 -15,20l-13 0 -24 -40zm60 124c8,0 14,3 20,8 5,6 8,12 8,20 0,7 -3,14 -8,19 -6,6 -12,8 -20,8 -7,0 -14,-2 -19,-8 -5,-5 -8,-12 -8,-19 0,-8 3,-14 8,-20 5,-5 12,-8 19,-8zm144 -205c8,0 14,3 20,8 5,6 8,12 8,19 0,8 -3,14 -8,20 -6,5 -12,8 -20,8 -7,0 -14,-3 -19,-8 -6,-6 -9,-12 -9,-20 0,-7 3,-13 9,-19 5,-5 12,-8 19,-8zm74 0c7,0 14,3 19,8 6,6 9,12 9,19 0,8 -3,14 -9,20 -5,5 -12,8 -19,8 -8,0 -15,-3 -20,-8 -6,-6 -8,-12 -8,-20 0,-7 2,-13 8,-19 5,-5 12,-8 20,-8zm-38 81l71 -21 0 127 -182 0 0 -55 127 0 0 -38 -16 5 0 -18zm169 -154l0 260 -103 0 0 -55 49 0 0 -167 -17 6 0 -17 71 -27z"/>
     <path class="fil1" d="M6430 367c10,0 18,4 25,11 7,6 10,15 10,24 0,10 -3,18 -10,24 -7,7 -15,10 -25,10 -9,0 -17,-3 -24,-10 -7,-7 -10,-15 -10,-24 0,-10 3,-18 10,-24 7,-7 15,-11 24,-11zm21 88l83 -35 0 160c0,16 -6,29 -17,41 -12,12 -28,25 -48,38 -20,13 -34,19 -41,19 -13,0 -37,-14 -73,-43 -21,-17 -32,-36 -31,-57l-17 0 0 -12 56 -60 17 0 0 62c0,8 7,17 20,29 13,12 22,17 28,17 3,0 11,-5 24,-15 13,-10 19,-18 19,-26l0 -104 -20 8 0 -22zm214 -8l88 -27 0 158 -224 0 0 -68 156 0 0 -47 -20 6 0 -22zm-49 155c10,0 18,3 25,10 6,6 10,14 10,24 0,9 -4,17 -10,24 -7,7 -15,10 -25,10 -9,0 -17,-3 -24,-10 -7,-7 -10,-15 -10,-24 0,-10 3,-18 10,-24 7,-7 15,-10 24,-10zm95 0c10,0 18,3 25,10 7,6 10,14 10,24 0,9 -3,17 -10,24 -7,6 -15,10 -25,10 -9,0 -17,-4 -24,-10 -7,-7 -10,-15 -10,-24 0,-10 3,-18 10,-24 7,-7 15,-10 24,-10zm179 -168c36,31 54,73 54,127 0,33 -9,60 -28,80 -19,19 -41,29 -66,29 -20,0 -36,-4 -49,-13 -13,-9 -20,-16 -20,-20 0,-4 2,-5 6,-5 2,0 5,0 9,1 7,1 13,2 19,2 19,0 34,-7 45,-21 11,-14 17,-32 17,-54 0,-30 -7,-45 -20,-45 -4,0 -8,2 -10,4l-13 -10 56 -75zm176 -159l0 235 5 0 0 68 -73 0 0 -256 -21 7 0 -22 89 -32zm23 235c9,-21 21,-39 39,-53 17,-14 31,-21 41,-21 12,0 29,10 51,30 21,20 32,44 32,71 0,16 -3,30 -9,43 -6,13 -16,23 -30,31 -14,8 -28,11 -43,11 -37,0 -62,-14 -76,-44l-33 0 0 -68 28 0zm81 -5c-5,0 -10,3 -15,10 -5,6 -7,12 -7,19 0,13 7,20 23,20 5,0 10,-2 14,-5 3,-4 5,-9 5,-15 0,-7 -2,-13 -6,-20 -5,-6 -9,-9 -14,-9zm373 20l0 -45c0,-6 -2,-9 -7,-9 -4,0 -9,3 -16,7 -7,5 -10,9 -10,14 0,4 5,17 14,39 13,29 19,46 19,53 0,18 -14,27 -44,27l-52 0c-20,0 -34,-3 -42,-9 -8,-7 -17,-20 -29,-41 -11,-22 -17,-34 -17,-38 0,-8 5,-12 13,-12 5,0 12,6 21,18 9,11 16,18 21,20 5,3 13,4 24,4 12,0 19,-1 24,-2 4,-2 6,-5 6,-10 0,-2 -3,-10 -9,-24 -9,-20 -14,-33 -14,-39 0,-6 3,-12 8,-18 6,-6 22,-16 51,-31 28,-14 46,-21 54,-21 17,0 25,11 25,33l0 69 9 0 0 68 -22 0 -27 -53zm-82 100c9,0 17,3 24,10 7,6 10,14 10,24 0,9 -3,17 -10,23 -7,7 -15,11 -24,11 -10,0 -18,-4 -25,-11 -6,-6 -10,-14 -10,-23 0,-10 4,-18 10,-24 7,-7 15,-10 25,-10zm95 0c9,0 17,3 24,10 7,7 10,15 10,24 0,9 -3,17 -10,24 -7,7 -15,10 -24,10 -10,0 -18,-3 -25,-10 -7,-6 -10,-15 -10,-24 0,-9 3,-17 10,-24 7,-7 15,-10 25,-10zm119 -279c10,0 18,4 25,10 7,7 10,15 10,24 0,10 -3,18 -10,24 -7,7 -15,10 -25,10 -9,0 -17,-3 -24,-10 -7,-6 -10,-14 -10,-24 0,-9 3,-17 10,-24 7,-6 15,-10 24,-10zm92 0c9,0 17,4 24,10 7,7 10,15 10,24 0,10 -3,18 -10,24 -7,7 -15,10 -24,10 -10,0 -18,-3 -25,-10 -7,-6 -10,-14 -10,-24 0,-9 3,-17 10,-24 7,-6 15,-10 25,-10zm-48 101l88 -27 0 158 -224 0 0 -68 156 0 0 -47 -20 6 0 -22zm303 -50l83 -30 0 211 -120 0c-18,0 -32,-5 -41,-15 -8,-10 -13,-22 -13,-35 0,-19 10,-37 29,-54 19,-17 47,-30 83,-40l0 -22 -21 7 0 -22zm21 79c-12,0 -21,3 -28,7 -7,4 -11,9 -11,15 0,5 2,8 7,10 4,2 14,2 32,2l0 -34zm194 -29l88 -27 0 158 -225 0 0 -68 157 0 0 -47 -20 6 0 -22zm-49 155c9,0 17,3 24,10 7,6 10,14 10,24 0,9 -3,17 -10,24 -7,7 -15,10 -24,10 -10,0 -18,-3 -25,-10 -6,-7 -10,-15 -10,-24 0,-10 4,-18 10,-24 7,-7 15,-10 25,-10zm95 0c9,0 17,3 24,10 7,6 10,14 10,24 0,9 -3,17 -10,24 -7,6 -15,10 -24,10 -10,0 -18,-4 -25,-10 -6,-7 -10,-15 -10,-24 0,-10 4,-18 10,-24 7,-7 15,-10 25,-10zm81 -178l149 -135c7,-6 13,-9 18,-9 3,0 5,1 8,3 2,2 3,5 3,8 0,4 -2,8 -6,13l-96 115 221 0 0 159 -341 0 0 -68 279 0 0 -27 -214 0 -21 -59zm634 -168l0 324c0,14 -6,27 -16,40 -11,12 -27,25 -48,38 -21,14 -35,20 -43,20 -8,0 -22,-7 -43,-21 -21,-15 -36,-29 -46,-41 -9,-12 -14,-25 -13,-38l-17 0 0 -11 56 -60 16 0 0 63c0,8 8,18 22,29 15,11 23,16 26,16 2,0 9,-4 19,-12 11,-8 18,-14 21,-18 3,-3 4,-9 4,-15l0 -269 -24 8 0 -22 86 -31zm127 19l0 303 -68 0 0 -256 -21 8 0 -22 89 -33zm-71 408c-8,-8 -12,-17 -12,-26 0,-17 11,-28 34,-33 13,-2 21,-6 25,-12 3,-2 5,-4 6,-4 3,0 5,4 5,11 0,5 -1,9 -4,13 -3,4 -9,8 -19,12 -12,5 -18,10 -18,15 0,9 6,13 16,13 9,0 19,-5 31,-16 3,-3 6,-5 7,-5 2,0 4,2 4,6l1 18c0,3 -2,6 -6,7l-86 31 0 -24 16 -6z"/>
    </g>
    <path class="fil1" d="M3398 1407l273 0 0 149 -434 0 0 -748 161 0 0 599zm357 -599l163 0 0 326 225 -326 196 0 -275 372 284 376 -196 0 -234 -336 0 336 -163 0 0 -748zm640 0l585 0 0 158 -211 0 0 590 -160 0 0 -590 -214 0 0 -158zm1726 0l0 748 -154 0 2 -444c0,-12 1,-29 1,-51 2,-36 3,-61 3,-73 -1,-6 -1,-14 -1,-24 -17,92 -33,167 -50,225l-110 367 -157 0 -106 -365c-13,-46 -29,-124 -49,-235 0,8 0,15 0,19 0,9 1,26 2,52 1,37 2,66 2,86l2 443 -154 0 0 -748 242 0 109 406c13,49 25,118 35,208 9,-91 20,-162 32,-211l106 -403 245 0zm295 561l-58 187 -159 0 230 -748 237 0 229 748 -163 0 -57 -187 -259 0zm223 -141l-95 -312 -93 312 188 0zm333 -420l289 0c50,0 87,3 110,7 54,12 94,37 119,77 21,33 31,73 31,120 0,38 -7,72 -21,102 -14,31 -33,55 -58,72 -27,19 -57,30 -91,36 -14,2 -30,5 -49,6l250 328 -196 0 -223 -316 0 316 -161 0 0 -748zm161 142l0 191 99 0c31,0 54,-2 68,-7 43,-15 64,-46 64,-95 0,-37 -12,-63 -37,-76 -16,-9 -46,-13 -91,-13l-103 0zm490 -142l160 0 0 748 -160 0 0 -748zm888 0l0 748 -190 0 -198 -396c-19,-40 -45,-106 -78,-198 6,73 9,144 10,215l2 379 -154 0 0 -748 223 0 168 350c26,55 53,134 81,237 -9,-103 -14,-187 -15,-253l-3 -334 154 0zm121 0l489 0 0 149 -336 0 0 155 336 0 0 142 -336 0 0 161 336 0 0 141 -489 0 0 -748z"/>
    <path class="fil0" d="M3223 1741l235 0 0 71 -161 0 0 74 161 0 0 68 -161 0 0 78 161 0 0 67 -235 0 0 -358zm481 358l33 53 -79 0 -26 -45c-21,-4 -38,-8 -51,-14 -12,-6 -24,-15 -35,-27 -31,-34 -47,-84 -47,-151 0,-61 13,-107 40,-138 25,-29 64,-44 118,-44 53,0 93,15 118,45 24,28 36,72 36,130 0,70 -17,123 -50,158 -14,15 -33,26 -57,33zm-49 -289c-25,0 -45,9 -58,26 -15,20 -23,48 -23,86 0,36 7,65 20,85 14,21 34,32 61,32 27,0 48,-11 61,-34 13,-22 20,-51 20,-88 0,-71 -27,-107 -81,-107zm200 -69l77 0 0 205c0,21 1,36 3,45 4,16 12,28 24,35 10,6 21,9 33,9 19,0 34,-6 45,-18 9,-9 14,-22 15,-38 1,-5 1,-16 1,-35l0 -203 77 0 0 203c0,26 0,43 -1,52 -1,9 -2,18 -5,26 -9,31 -27,54 -54,68 -22,12 -48,17 -78,17 -25,0 -48,-4 -68,-13 -20,-9 -35,-21 -46,-37 -12,-17 -19,-37 -21,-58 -1,-14 -2,-31 -2,-50l0 -208zm333 0l77 0 0 358 -77 0 0 -358zm134 0l139 0c28,0 47,1 57,4 26,7 46,21 58,42 11,18 17,40 17,67 0,18 -3,36 -9,53 -6,17 -15,31 -25,42 -18,18 -41,30 -71,34 -12,2 -29,2 -51,2l-38 0 0 114 -77 0 0 -358zm77 71l0 108 41 0c24,0 41,-3 51,-9 18,-10 26,-26 26,-49 0,-18 -6,-32 -19,-40 -8,-5 -16,-8 -25,-9 -8,0 -18,-1 -30,-1l-44 0zm601 -71l0 358 -73 0 1 -213c0,-5 0,-14 1,-24 0,-17 1,-29 1,-35 -1,-3 -1,-7 -1,-12 -8,44 -16,80 -24,108l-52 176 -75 0 -52 -175c-6,-22 -14,-59 -23,-112 0,4 0,7 0,9 0,4 1,12 1,25 1,17 1,31 1,41l1 212 -74 0 0 -358 116 0 53 194c6,24 11,57 16,100 4,-44 10,-77 16,-101l50 -193 117 0zm58 0l235 0 0 71 -162 0 0 74 162 0 0 68 -162 0 0 78 162 0 0 67 -235 0 0 -358zm582 0l0 358 -91 0 -95 -190c-10,-19 -22,-50 -37,-94 2,34 4,69 4,102l1 182 -73 0 0 -358 106 0 81 168c12,26 25,63 39,113 -5,-49 -7,-90 -8,-121l-1 -160 74 0zm43 0l281 0 0 76 -101 0 0 282 -77 0 0 -282 -103 0 0 -76zm445 0l280 0 0 76 -101 0 0 282 -77 0 0 -282 -102 0 0 -76zm324 0l138 0c24,0 42,1 53,3 26,6 45,18 57,37 10,16 15,35 15,57 0,19 -3,35 -10,49 -7,15 -16,27 -28,35 -13,9 -27,14 -43,17 -7,1 -15,2 -24,3l120 157 -94 0 -107 -151 0 151 -77 0 0 -358zm77 68l0 91 48 0c15,0 25,-1 32,-3 21,-7 31,-22 31,-45 0,-18 -6,-31 -18,-37 -8,-4 -22,-6 -43,-6l-50 0zm318 201l-27 89 -77 0 111 -358 113 0 110 358 -78 0 -27 -89 -125 0zm107 -68l-45 -149 -45 149 90 0zm160 -201l124 0c26,0 46,1 58,3 39,7 68,26 86,57 16,28 23,62 23,103 0,50 -10,93 -32,128 -20,31 -48,52 -85,61 -18,4 -39,6 -64,6l-110 0 0 -358zm77 71l0 220 34 0c19,0 34,-2 43,-4 41,-12 62,-51 62,-116 0,-38 -9,-65 -27,-81 -13,-13 -34,-19 -62,-19l-50 0zm258 -71l77 0 0 358 -77 0 0 -358zm425 0l0 358 -91 0 -95 -190c-9,-19 -21,-50 -37,-94 3,34 4,69 5,102l1 182 -74 0 0 -358 107 0 80 168c13,26 26,63 39,113 -4,-49 -7,-90 -7,-121l-1 -160 73 0zm327 178l0 121c-2,2 -3,4 -5,6 -10,14 -20,24 -30,32 -25,20 -56,29 -93,29 -42,0 -77,-13 -103,-39 -18,-18 -32,-40 -40,-66 -9,-28 -14,-57 -14,-88 0,-64 18,-112 55,-144 28,-25 63,-37 106,-37 28,0 52,6 73,16 11,6 25,15 40,29l0 84 -3 0c-14,-18 -29,-31 -45,-39 -16,-9 -34,-13 -55,-13 -34,0 -59,12 -76,36 -13,20 -20,46 -20,78 0,38 8,68 25,91 14,20 35,30 62,30 20,0 36,-6 50,-17l0 -109 73 0zm258 109l132 0 0 71 -208 0 0 -358 76 0 0 287zm249 0l131 0 0 71 -208 0 0 -358 77 0 0 287zm411 -249l0 90 -2 0c-10,-16 -20,-29 -33,-38 -19,-14 -40,-21 -63,-21 -25,0 -46,9 -63,25 -18,19 -28,47 -28,85 0,37 8,66 24,88 15,20 37,30 66,30 41,0 73,-20 97,-60l2 0 0 78c-13,13 -26,23 -36,30 -23,14 -50,21 -79,21 -19,0 -38,-3 -55,-10 -17,-7 -32,-17 -44,-29 -34,-35 -50,-86 -50,-155 0,-62 14,-108 44,-138 27,-28 64,-42 109,-42 29,0 55,6 77,19 10,6 21,15 34,27z"/>
   </g>
   <path class="fil2" d="M296 1778l2356 -358c43,-118 90,-236 142,-351l-2529 638c9,24 20,48 31,71z"/>
   <path class="fil2" d="M385 1932l1361 -15c19,-3 38,-5 56,-8 242,-33 479,-52 709,-27 23,-92 49,-183 78,-274l-2275 206c21,41 45,80 71,118z"/>
   <path class="fil2" d="M1734 1010l-1502 603c6,20 13,40 20,60l2653 -839c103,-198 234,-411 369,-599l0 0 -1508 632 -32 143z"/>
   <path class="fil2" d="M1245 2257c490,296 942,-121 1520,-103 -612,-116 -1158,222 -1520,103l0 0z"/>
   <path class="fil3" d="M600 1959c581,615 1628,-113 2464,178 -845,-508 -1853,172 -2464,-178l0 0z"/>
   <path class="fil3" d="M222 1578l26 -11 0 -268 -59 59c1,10 1,21 2,31 1,-1 2,-1 3,-1 3,0 4,1 4,4l0 65c5,33 11,66 19,99l0 -196c0,-2 2,-4 4,-4 3,0 4,2 4,4l0 201c0,2 -1,4 -4,4 -1,0 -1,-1 -2,-1l3 14zm63 -26l130 -53 0 -366 -130 130 0 289zm167 -68l1117 -459 -921 378 0 -503 -196 196 0 388zm134 -477c0,-4 3,-8 8,-8 5,0 8,4 8,8l0 380c0,5 -3,9 -8,9 -5,0 -8,-4 -8,-9l0 -380zm-52 60c0,-4 4,-8 9,-8 4,0 8,4 8,8l0 340c0,4 -4,8 -8,8 -5,0 -9,-4 -9,-8l0 -340zm-51 44c0,-4 4,-8 9,-8 4,0 8,4 8,8l0 319c0,4 -4,8 -8,8 -5,0 -9,-4 -9,-8l0 -319zm-102 80c0,-4 3,-7 6,-7 4,0 7,3 7,7l0 286c0,3 -3,6 -7,6 -3,0 -6,-3 -6,-6l0 -286zm-39 45c0,-4 3,-7 7,-7 3,0 6,3 6,7l0 255c0,4 -3,7 -6,7 -4,0 -7,-3 -7,-7l0 -255zm-38 33c0,-3 3,-6 6,-6 4,0 7,3 7,6l0 240c0,3 -3,6 -7,6 -3,0 -6,-3 -6,-6l0 -240z"/>
   <path class="fil4" d="M874 724l0 -55 54 0 0 -90 -54 0 0 -27 -187 0 0 -171c-17,11 -33,22 -49,34l0 137 -152 0c-183,196 -295,455 -298,739l433 -433 237 0 16 0 257 0 0 -134 -257 0z"/>
   <polygon class="fil3" points="1569,897 648,900 648,1403 1569,1025 "/>
   <path class="fil5" d="M1341 0c437,0 826,203 1071,518l-153 69c-216,-261 -547,-428 -918,-428 -650,0 -1177,513 -1177,1145 0,632 527,1145 1177,1145 72,0 142,-6 210,-18 21,2 43,3 66,3 189,2 377,-56 557,-108 -229,177 -518,282 -833,282 -741,0 -1341,-584 -1341,-1304 0,-720 600,-1304 1341,-1304l0 0z"/>
  </g>
 </g>
</svg>
